<svg width="auto" height="auto" viewBox="0 0 46 76" fill="none" xmlns="http://www.w3.org/2000/svg">
<path d="M26 3C26 1.34315 24.6569 0 23 0C21.3431 0 20 1.34315 20 3H26ZM20.8787 75.1213C22.0503 76.2929 23.9497 76.2929 25.1213 75.1213L44.2132 56.0294C45.3848 54.8579 45.3848 52.9584 44.2132 51.7868C43.0416 50.6152 41.1421 50.6152 39.9706 51.7868L23 68.7574L6.02944 51.7868C4.85786 50.6152 2.95837 50.6152 1.7868 51.7868C0.615224 52.9584 0.615224 54.8579 1.7868 56.0294L20.8787 75.1213ZM20 3L20 73H26L26 3H20Z" fill="black"/>
</svg>
