<svg width="auto" height="auto" viewBox="0 0 604 446" fill="none" xmlns="http://www.w3.org/2000/svg">
<g id="book-idea">
<g id="Group">
<g id="dream">
<g id="Vector">
<path d="M301.5 401.928C301.5 401.928 289.785 376.251 278.858 362.022C262.498 340.717 243.465 338.039 226.5 317.202C210.379 297.403 210.773 279.981 194.5 260.303C176.837 238.944 156.034 237.468 139.5 215.24C119.938 188.942 130.19 163.071 111 136.505C88.1344 104.849 51.9682 110.319 28.9918 78.7427C9.74041 52.2853 3.3947 27.4984 0 0.326904H604C596 22.6106 590.896 52.6995 566 78.7427C541.458 104.415 510.111 110.668 492 136.505C472.684 164.06 476.331 188.047 456.5 215.24C441.219 236.194 425.054 240.443 409 260.303C392.644 280.537 391.23 297.271 374.5 317.202C357.384 337.593 338.851 340.652 323 362.022C312.441 376.258 301.5 401.928 301.5 401.928Z" fill="#393186"/>
<path d="M301.5 401.928C301.5 401.928 289.785 376.251 278.858 362.022C262.498 340.717 243.465 338.039 226.5 317.202C210.379 297.403 210.773 279.981 194.5 260.303C176.837 238.944 156.034 237.468 139.5 215.24C119.938 188.942 130.19 163.071 111 136.505C88.1344 104.849 51.9682 110.319 28.9918 78.7427C9.74041 52.2853 3.3947 27.4984 0 0.326904H604C596 22.6106 590.896 52.6995 566 78.7427C541.458 104.415 510.111 110.668 492 136.505C472.684 164.06 476.331 188.047 456.5 215.24C441.219 236.194 425.054 240.443 409 260.303C392.644 280.537 391.23 297.271 374.5 317.202C357.384 337.593 338.851 340.652 323 362.022C312.441 376.258 301.5 401.928 301.5 401.928Z" fill="url(#paint0_linear_365_437)" fill-opacity="0.3"/>
<path d="M301.5 401.928C301.5 401.928 289.785 376.251 278.858 362.022C262.498 340.717 243.465 338.039 226.5 317.202C210.379 297.403 210.773 279.981 194.5 260.303C176.837 238.944 156.034 237.468 139.5 215.24C119.938 188.942 130.19 163.071 111 136.505C88.1344 104.849 51.9682 110.319 28.9918 78.7427C9.74041 52.2853 3.3947 27.4984 0 0.326904H604C596 22.6106 590.896 52.6995 566 78.7427C541.458 104.415 510.111 110.668 492 136.505C472.684 164.06 476.331 188.047 456.5 215.24C441.219 236.194 425.054 240.443 409 260.303C392.644 280.537 391.23 297.271 374.5 317.202C357.384 337.593 338.851 340.652 323 362.022C312.441 376.258 301.5 401.928 301.5 401.928Z" fill="url(#paint1_radial_365_437)"/>
</g>
</g>
<g id="cover">
<path id="Vector_2" d="M113.714 403.322L288.276 443.33C291.183 444.379 295.933 445.666 301.845 445.571C307.176 445.475 312.507 444.045 315.269 443.044C373.569 429.692 430.803 416.626 489.103 403.274C490.072 403.369 490.945 402.845 491.235 402.034C491.526 401.081 490.848 400.27 490.848 400.27C469.427 375.855 448.056 351.44 426.635 326.978L302.523 353.491L178.315 327.025L113.714 398.982C113.569 399.173 112.891 399.984 112.891 401.176C112.891 402.368 113.569 403.131 113.714 403.322Z" fill="#663399"/>
</g>
<g id="stem_shadow">
<path id="Vector_3" d="M289.03 440.311C292.616 440.979 297.075 441.504 302.163 441.504C307.204 441.456 310.927 441.315 314.465 440.6C314.919 440.45 315.07 440.3 315.222 440.15C315.373 440 315.525 439.7 315.491 439.31C315.491 436.544 315.491 434.112 315.491 431.299H288.109C288.109 433.922 288.109 436.497 288.109 439.119C288.109 439.262 288.158 439.644 288.497 439.978C288.691 440.168 288.885 440.264 289.03 440.311Z" fill="#472866"/>
</g>
<g id="last_pg">
<g id="Vector_4" opacity="0.53">
<path d="M180.792 325.023L122.395 390.828V399.364L295.599 438.466L301.705 433.22L308.15 438.466L481.839 398.887V390.542L422.424 325.023L302.141 357.782L180.792 325.023Z" fill="url(#paint2_linear_365_437)"/>
<path d="M180.792 325.023L122.395 390.828V399.364L295.599 438.466L301.705 433.22L308.15 438.466L481.839 398.887V390.542L422.424 325.023L302.141 357.782L180.792 325.023Z" fill="url(#paint3_radial_365_437)"/>
</g>
</g>
<g id="leftstack">
<path id="Vector_5" d="M122.305 399.125V390.923L301.712 433.22L295.509 438.466L122.305 399.125Z" fill="url(#paint4_linear_365_437)"/>
</g>
<g id="rightstack">
<path id="Vector_6" d="M481.84 399.03V390.828L301.852 433.22L308.152 438.37L481.84 399.03Z" fill="url(#paint5_linear_365_437)"/>
</g>
<g id="Layer_11">
<path id="Vector_7" opacity="0.3" d="M122.395 390.828C148.564 397.886 170.324 401.271 185.638 403.036C219.513 406.946 238.316 404.943 265.794 414.814C281.738 420.536 293.902 427.88 301.705 433.22C241.951 419.058 182.148 404.943 122.395 390.828Z" fill="url(#paint6_linear_365_437)"/>
</g>
<g id="Layer_12">
<g id="Vector_8" opacity="0.3">
<path d="M481.162 390.828C454.992 397.886 433.233 401.271 417.919 403.036C384.044 406.946 365.24 404.943 337.762 414.814C321.818 420.536 309.654 427.88 301.852 433.22C361.654 419.058 421.408 404.943 481.162 390.828Z" fill="#8F6F89"/>
<path d="M481.162 390.828C454.992 397.886 433.233 401.271 417.919 403.036C384.044 406.946 365.24 404.943 337.762 414.814C321.818 420.536 309.654 427.88 301.852 433.22C361.654 419.058 421.408 404.943 481.162 390.828Z" fill="url(#paint7_linear_365_437)"/>
</g>
</g>
<g id="top_pg">
<path id="Vector_9" d="M199.936 318.013L135.094 381.291C136.499 382.674 138.05 384.009 139.698 385.344C155.739 397.981 175.027 399.936 187.627 399.698C194.848 399.507 205.316 399.459 217.867 400.222C241.372 401.653 254.65 402.416 269.092 408.853C276.797 412.286 289.834 419.105 301.707 433.268C308.346 426.544 319.202 416.34 336.697 409.044C358.456 400.031 377.89 400.174 387.921 400.937C403.865 402.034 426.885 401.176 451.504 391.114C457.562 388.635 462.989 385.917 467.884 383.055C446.464 361.359 424.995 339.71 403.575 318.013C389.521 322.924 377.89 325.833 370.087 327.598C349.878 332.128 340.089 332.08 324.823 338.184C314.307 342.38 306.456 347.435 301.707 350.773C292.305 344.049 284.018 340.33 278.348 338.184C257.606 330.316 245.006 333.463 219.951 325.738C211.131 323.02 204.152 320.016 199.936 318.013Z" fill="url(#paint8_linear_365_437)"/>
</g>
<g id="bulb">
<path id="Vector_10" d="M359.376 278.148C359.376 311.575 333.012 316.773 333.012 347.911C333.012 363.981 316.535 365.364 303.983 365.364C293.128 365.364 269.236 361.311 269.236 347.911C269.236 316.773 243.309 311.575 243.309 278.148C243.309 246.819 271.174 221.45 301.803 221.45C332.382 221.45 359.376 246.819 359.376 278.148Z" fill="url(#paint9_linear_365_437)"/>
<path id="Vector_11" d="M323.316 389.493C323.316 393.785 311.54 402.463 301.314 402.463C291.137 402.463 279.312 393.785 279.312 389.493C279.312 385.201 291.089 386.918 301.314 386.918C311.54 386.87 323.316 385.154 323.316 389.493Z" fill="url(#paint10_linear_365_437)"/>
<path id="Vector_12" d="M332.965 381.673C332.965 387.395 328.216 392.068 322.4 392.068H280.19C274.374 392.068 269.625 387.395 269.625 381.673V350.534H332.965V381.673Z" fill="#99AAB5"/>
<path id="Vector_13" d="M269.672 386.87C266.764 386.87 264.39 384.534 264.438 381.673C264.438 379.145 266.28 376.999 268.848 376.57L332.188 366.175C335.048 365.698 337.762 367.558 338.246 370.371V370.419C338.731 373.232 336.792 375.903 333.933 376.379L270.593 386.775C270.254 386.87 269.963 386.87 269.672 386.87ZM269.672 366.127C266.764 366.127 264.39 363.791 264.438 360.929C264.438 358.402 266.28 356.256 268.848 355.827L332.188 345.432C335.048 344.955 337.762 346.862 338.246 349.676V349.723C338.731 352.537 336.792 355.207 333.933 355.684L270.593 366.08C270.254 366.08 269.963 366.127 269.672 366.127Z" fill="url(#paint11_linear_365_437)"/>
</g>
</g>
</g>
<defs>
<linearGradient id="paint0_linear_365_437" x1="309" y1="0.326942" x2="309" y2="402.194" gradientUnits="userSpaceOnUse">
<stop stop-color="#393186"/>
<stop offset="1" stop-color="#000001"/>
</linearGradient>
<radialGradient id="paint1_radial_365_437" cx="0" cy="0" r="1" gradientUnits="userSpaceOnUse" gradientTransform="translate(309 238.025) rotate(90) scale(86.9983 133.788)">
<stop stop-color="#563186"/>
<stop offset="1" stop-color="#393186"/>
</radialGradient>
<linearGradient id="paint2_linear_365_437" x1="302.076" y1="432.123" x2="302.154" y2="359.289" gradientUnits="userSpaceOnUse">
<stop stop-color="#FFE1F8"/>
<stop offset="1" stop-color="#9E7FBD"/>
</linearGradient>
<radialGradient id="paint3_radial_365_437" cx="0" cy="0" r="1" gradientUnits="userSpaceOnUse" gradientTransform="translate(302.117 381.744) rotate(90) scale(56.7215 179.722)">
<stop stop-color="#393186"/>
<stop offset="1" stop-color="#9995C0"/>
</radialGradient>
<linearGradient id="paint4_linear_365_437" x1="122.295" y1="414.681" x2="301.72" y2="414.681" gradientUnits="userSpaceOnUse">
<stop stop-color="white"/>
<stop offset="1" stop-color="#9E7FBD"/>
</linearGradient>
<linearGradient id="paint5_linear_365_437" x1="479.498" y1="422.135" x2="300.337" y2="405.628" gradientUnits="userSpaceOnUse">
<stop stop-color="white"/>
<stop offset="1" stop-color="#9E7FBD"/>
</linearGradient>
<linearGradient id="paint6_linear_365_437" x1="301.533" y1="433.36" x2="122.751" y2="389.426" gradientUnits="userSpaceOnUse">
<stop stop-color="#A78BC4"/>
<stop offset="1" stop-color="#7F65AD"/>
</linearGradient>
<linearGradient id="paint7_linear_365_437" x1="481.007" y1="390.746" x2="302.226" y2="434.681" gradientUnits="userSpaceOnUse">
<stop stop-color="#7E64AC"/>
<stop offset="1" stop-color="#A78BC4"/>
</linearGradient>
<linearGradient id="paint8_linear_365_437" x1="301.559" y1="422.485" x2="301.298" y2="242.912" gradientUnits="userSpaceOnUse">
<stop stop-color="white"/>
<stop offset="1" stop-color="#9E7FBD"/>
</linearGradient>
<linearGradient id="paint9_linear_365_437" x1="301.167" y1="353.095" x2="301.416" y2="229.685" gradientUnits="userSpaceOnUse">
<stop stop-color="#FFBB51"/>
<stop offset="1" stop-color="#FFF0E4"/>
</linearGradient>
<linearGradient id="paint10_linear_365_437" x1="301.314" y1="386.544" x2="301.314" y2="402.463" gradientUnits="userSpaceOnUse">
<stop stop-color="#E0D5D5"/>
<stop offset="1" stop-color="#FFBB3C"/>
</linearGradient>
<linearGradient id="paint11_linear_365_437" x1="301.971" y1="411.563" x2="301.382" y2="368.424" gradientUnits="userSpaceOnUse">
<stop stop-color="#6D6D6C"/>
<stop offset="1" stop-color="#DADADA"/>
</linearGradient>
</defs>
</svg>
