<svg width="2568" height="1110" viewBox="0 0 2568 1110" fill="none" xmlns="http://www.w3.org/2000/svg">
<g id="book-idea.2 1">
<g id="book-idea">
<g id="Group">
<g id="dream" filter="url(#filter0_d_440_422)">
<g id="Vector">
<path d="M1286.81 863.565C1272.94 842.231 1230.99 809.39 1191.13 776.375C1124.7 721.297 1083.56 720.729 1025.75 680.17C915.381 602.784 973.77 540.811 880.185 491.248C792.66 444.93 725.646 490.437 629.846 443.713C532.065 396.016 578.8 337.206 485.331 273.124C373.914 196.792 170.757 256.37 66.3882 171.649C-2.79795 115.487 18.4516 58.325 4 0.0016929C880.185 0.00170113 1692.79 4.94524e-05 2563.9 0C2563.9 63.4649 2569.41 118.242 2497.9 174.411C2397.05 253.625 2181.67 221.351 2098.62 273.124C2015.56 324.897 2059.76 396.178 1954.16 443.713C1848.56 491.248 1775.46 449.321 1703.85 491.248C1622.9 538.643 1649.44 600.27 1517.05 680.17C1461.11 713.996 1433.29 715.943 1363.25 776.375C1332.09 803.258 1302.38 842.849 1286.81 863.565Z" fill="#393186"/>
<path d="M1286.81 863.565C1272.94 842.231 1230.99 809.39 1191.13 776.375C1124.7 721.297 1083.56 720.729 1025.75 680.17C915.381 602.784 973.77 540.811 880.185 491.248C792.66 444.93 725.646 490.437 629.846 443.713C532.065 396.016 578.8 337.206 485.331 273.124C373.914 196.792 170.757 256.37 66.3882 171.649C-2.79795 115.487 18.4516 58.325 4 0.0016929C880.185 0.00170113 1692.79 4.94524e-05 2563.9 0C2563.9 63.4649 2569.41 118.242 2497.9 174.411C2397.05 253.625 2181.67 221.351 2098.62 273.124C2015.56 324.897 2059.76 396.178 1954.16 443.713C1848.56 491.248 1775.46 449.321 1703.85 491.248C1622.9 538.643 1649.44 600.27 1517.05 680.17C1461.11 713.996 1433.29 715.943 1363.25 776.375C1332.09 803.258 1302.38 842.849 1286.81 863.565Z" fill="url(#paint0_linear_440_422)" fill-opacity="0.3"/>
<path d="M1286.81 863.565C1272.94 842.231 1230.99 809.39 1191.13 776.375C1124.7 721.297 1083.56 720.729 1025.75 680.17C915.381 602.784 973.77 540.811 880.185 491.248C792.66 444.93 725.646 490.437 629.846 443.713C532.065 396.016 578.8 337.206 485.331 273.124C373.914 196.792 170.757 256.37 66.3882 171.649C-2.79795 115.487 18.4516 58.325 4 0.0016929C880.185 0.00170113 1692.79 4.94524e-05 2563.9 0C2563.9 63.4649 2569.41 118.242 2497.9 174.411C2397.05 253.625 2181.67 221.351 2098.62 273.124C2015.56 324.897 2059.76 396.178 1954.16 443.713C1848.56 491.248 1775.46 449.321 1703.85 491.248C1622.9 538.643 1649.44 600.27 1517.05 680.17C1461.11 713.996 1433.29 715.943 1363.25 776.375C1332.09 803.258 1302.38 842.849 1286.81 863.565Z" fill="url(#paint1_radial_440_422)"/>
</g>
</g>
<g id="cover" filter="url(#filter1_d_440_422)">
<path id="Vector_2" d="M814.345 842.946L1251.66 941.598C1258.94 944.185 1270.84 947.36 1285.65 947.125C1299.01 946.89 1312.36 943.362 1319.28 940.893C1465.34 907.97 1608.72 875.752 1754.78 842.829C1757.2 843.064 1759.39 841.77 1760.12 839.771C1760.85 837.42 1759.15 835.421 1759.15 835.421C1705.48 775.218 1651.94 715.016 1598.28 654.696L1287.35 720.072L976.183 654.813L814.345 832.246C813.981 832.716 812.281 834.715 812.281 837.655C812.281 840.594 813.981 842.476 814.345 842.946Z" fill="#663399"/>
</g>
<g id="stem_shadow">
<path id="Vector_3" d="M1253.59 934.162C1262.58 935.809 1273.75 937.102 1286.49 937.102C1299.12 936.984 1308.45 936.637 1317.31 934.873C1318.45 934.503 1318.83 934.133 1319.21 933.763C1319.59 933.393 1319.97 932.654 1319.88 931.693C1319.88 924.873 1319.88 918.877 1319.88 911.939H1251.29C1251.29 918.406 1251.29 924.756 1251.29 931.223C1251.29 931.576 1251.41 932.516 1252.26 933.339C1252.74 933.81 1253.23 934.045 1253.59 934.162Z" fill="#472866"/>
</g>
<g id="last_pg">
<g id="Vector_4" opacity="0.53">
<path d="M982.458 649.873L836.16 812.138V833.186L1270.07 929.604L1285.37 916.67L1301.52 929.604L1736.65 832.01V811.433L1587.8 649.873L1286.46 730.653L982.458 649.873Z" fill="url(#paint2_linear_440_422)"/>
<path d="M982.458 649.873L836.16 812.138V833.186L1270.07 929.604L1285.37 916.67L1301.52 929.604L1736.65 832.01V811.433L1587.8 649.873L1286.46 730.653L982.458 649.873Z" fill="url(#paint3_radial_440_422)"/>
</g>
</g>
<g id="leftstack">
<path id="Vector_5" d="M835.91 832.602V812.378L1285.36 916.674L1269.82 929.608L835.91 832.602Z" fill="url(#paint4_linear_440_422)"/>
</g>
<g id="rightstack">
<path id="Vector_6" d="M1736.64 832.365V812.141L1285.73 916.672L1301.51 929.371L1736.64 832.365Z" fill="url(#paint5_linear_440_422)"/>
</g>
<g id="Layer_11">
<path id="Vector_7" opacity="0.3" d="M836.16 812.141C901.721 829.543 956.233 837.892 994.598 842.242C1079.46 851.884 1126.57 846.945 1195.41 871.285C1235.35 885.395 1265.83 903.503 1285.37 916.672C1135.68 881.75 985.857 846.945 836.16 812.141Z" fill="url(#paint6_linear_440_422)"/>
</g>
<g id="Layer_12">
<g id="Vector_8" opacity="0.3">
<path d="M1734.94 812.141C1669.38 829.543 1614.87 837.892 1576.5 842.242C1491.64 851.884 1444.53 846.945 1375.69 871.285C1335.75 885.395 1305.28 903.503 1285.73 916.672C1435.55 881.75 1585.25 846.945 1734.94 812.141Z" fill="#8F6F89"/>
<path d="M1734.94 812.141C1669.38 829.543 1614.87 837.892 1576.5 842.242C1491.64 851.884 1444.53 846.945 1375.69 871.285C1335.75 885.395 1305.28 903.503 1285.73 916.672C1435.55 881.75 1585.25 846.945 1734.94 812.141Z" fill="url(#paint7_linear_440_422)"/>
</g>
</g>
<g id="top_pg">
<path id="Vector_9" d="M1030.46 632.59L868.012 788.623C871.533 792.033 875.418 795.325 879.546 798.617C919.732 829.777 968.053 834.598 999.619 834.01C1017.71 833.54 1043.93 833.422 1075.38 835.303C1134.26 838.831 1167.53 840.712 1203.71 856.586C1223.01 865.052 1255.67 881.866 1285.42 916.788C1302.05 900.209 1329.24 875.046 1373.07 857.056C1427.58 834.833 1476.27 835.186 1501.4 837.067C1541.34 839.771 1599.01 837.655 1660.69 812.845C1675.87 806.731 1689.46 800.028 1701.73 792.973C1648.06 739.473 1594.28 686.09 1540.62 632.59C1505.41 644.701 1476.27 651.874 1456.72 656.224C1406.1 667.395 1381.57 667.277 1343.33 682.328C1316.98 692.675 1297.31 705.139 1285.42 713.37C1261.86 696.79 1241.1 687.619 1226.9 682.328C1174.93 662.927 1143.37 670.687 1080.6 651.639C1058.5 644.936 1041.02 637.529 1030.46 632.59Z" fill="url(#paint8_linear_440_422)"/>
</g>
<g id="bulb">
<path id="Vector_10" d="M1429.85 534.291C1429.85 616.716 1363.81 629.533 1363.81 706.315C1363.81 745.94 1322.53 749.35 1291.08 749.35C1263.89 749.35 1204.03 739.355 1204.03 706.315C1204.03 629.533 1139.08 616.716 1139.08 534.291C1139.08 457.039 1208.89 394.484 1285.62 394.484C1362.23 394.484 1429.85 457.039 1429.85 534.291Z" fill="url(#paint9_linear_440_422)"/>
<path id="Vector_11" d="M1339.54 808.849C1339.54 819.432 1310.04 840.832 1284.42 840.832C1258.92 840.832 1229.3 819.432 1229.3 808.849C1229.3 798.267 1258.8 802.5 1284.42 802.5C1310.04 802.382 1339.54 798.149 1339.54 808.849Z" fill="url(#paint10_linear_440_422)"/>
<path id="Vector_12" d="M1363.71 789.565C1363.71 803.675 1351.81 815.198 1337.24 815.198H1231.49C1216.93 815.198 1205.03 803.675 1205.03 789.565V712.783H1363.71V789.565Z" fill="#99AAB5"/>
<path id="Vector_13" d="M1205.09 802.381C1197.8 802.381 1191.85 796.62 1191.97 789.565C1191.97 783.333 1196.59 778.042 1203.02 776.984L1361.7 751.35C1368.87 750.175 1375.67 754.76 1376.88 761.698V761.815C1378.09 768.753 1373.24 775.337 1366.07 776.513L1207.39 802.146C1206.54 802.381 1205.82 802.381 1205.09 802.381ZM1205.09 751.233C1197.8 751.233 1191.85 745.471 1191.97 738.416C1191.97 732.184 1196.59 726.893 1203.02 725.835L1361.7 700.202C1368.87 699.026 1375.67 703.729 1376.88 710.667V710.784C1378.09 717.722 1373.24 724.306 1366.07 725.482L1207.39 751.115C1206.54 751.115 1205.82 751.233 1205.09 751.233Z" fill="url(#paint11_linear_440_422)"/>
</g>
</g>
</g>
</g>
<defs>
<filter id="filter0_d_440_422" x="0" y="0" width="2568" height="871.565" filterUnits="userSpaceOnUse" color-interpolation-filters="sRGB">
<feFlood flood-opacity="0" result="BackgroundImageFix"/>
<feColorMatrix in="SourceAlpha" type="matrix" values="0 0 0 0 0 0 0 0 0 0 0 0 0 0 0 0 0 0 127 0" result="hardAlpha"/>
<feOffset dy="4"/>
<feGaussianBlur stdDeviation="2"/>
<feComposite in2="hardAlpha" operator="out"/>
<feColorMatrix type="matrix" values="0 0 0 0 0 0 0 0 0 0 0 0 0 0 0 0 0 0 0.25 0"/>
<feBlend mode="normal" in2="BackgroundImageFix" result="effect1_dropShadow_440_422"/>
<feBlend mode="normal" in="SourceGraphic" in2="effect1_dropShadow_440_422" result="shape"/>
</filter>
<filter id="filter1_d_440_422" x="804.281" y="650.696" width="964.02" height="308.441" filterUnits="userSpaceOnUse" color-interpolation-filters="sRGB">
<feFlood flood-opacity="0" result="BackgroundImageFix"/>
<feColorMatrix in="SourceAlpha" type="matrix" values="0 0 0 0 0 0 0 0 0 0 0 0 0 0 0 0 0 0 127 0" result="hardAlpha"/>
<feOffset dy="4"/>
<feGaussianBlur stdDeviation="4"/>
<feComposite in2="hardAlpha" operator="out"/>
<feColorMatrix type="matrix" values="0 0 0 0 0 0 0 0 0 0 0 0 0 0 0 0 0 0 0.25 0"/>
<feBlend mode="normal" in2="BackgroundImageFix" result="effect1_dropShadow_440_422"/>
<feBlend mode="normal" in="SourceGraphic" in2="effect1_dropShadow_440_422" result="shape"/>
</filter>
<linearGradient id="paint0_linear_440_422" x1="1328.94" y1="0.00163198" x2="1328.94" y2="862.603" gradientUnits="userSpaceOnUse">
<stop stop-color="#393186"/>
<stop offset="1" stop-color="#000001"/>
</linearGradient>
<radialGradient id="paint1_radial_440_422" cx="0" cy="0" r="1" gradientUnits="userSpaceOnUse" gradientTransform="translate(1328.94 510.218) rotate(90) scale(186.741 569.549)">
<stop stop-color="#563186"/>
<stop offset="1" stop-color="#393186"/>
</radialGradient>
<linearGradient id="paint2_linear_440_422" x1="1286.3" y1="913.964" x2="1286.49" y2="734.368" gradientUnits="userSpaceOnUse">
<stop stop-color="#FFE1F8"/>
<stop offset="1" stop-color="#9E7FBD"/>
</linearGradient>
<radialGradient id="paint3_radial_440_422" cx="0" cy="0" r="1" gradientUnits="userSpaceOnUse" gradientTransform="translate(1286.4 789.739) rotate(90) scale(139.865 450.244)">
<stop stop-color="#393186"/>
<stop offset="1" stop-color="#9995C0"/>
</radialGradient>
<linearGradient id="paint4_linear_440_422" x1="835.886" y1="870.96" x2="1285.38" y2="870.96" gradientUnits="userSpaceOnUse">
<stop stop-color="white"/>
<stop offset="1" stop-color="#9E7FBD"/>
</linearGradient>
<linearGradient id="paint5_linear_440_422" x1="1730.78" y1="889.338" x2="1282.06" y2="847.334" gradientUnits="userSpaceOnUse">
<stop stop-color="white"/>
<stop offset="1" stop-color="#9E7FBD"/>
</linearGradient>
<linearGradient id="paint6_linear_440_422" x1="1284.94" y1="917.017" x2="837.874" y2="805.398" gradientUnits="userSpaceOnUse">
<stop stop-color="#A78BC4"/>
<stop offset="1" stop-color="#7F65AD"/>
</linearGradient>
<linearGradient id="paint7_linear_440_422" x1="1734.55" y1="811.939" x2="1287.49" y2="923.558" gradientUnits="userSpaceOnUse">
<stop stop-color="#7E64AC"/>
<stop offset="1" stop-color="#A78BC4"/>
</linearGradient>
<linearGradient id="paint8_linear_440_422" x1="1285.04" y1="890.198" x2="1284.41" y2="447.405" gradientUnits="userSpaceOnUse">
<stop stop-color="white"/>
<stop offset="1" stop-color="#9E7FBD"/>
</linearGradient>
<linearGradient id="paint9_linear_440_422" x1="1284.03" y1="719.095" x2="1284.63" y2="414.789" gradientUnits="userSpaceOnUse">
<stop stop-color="#FFBB51"/>
<stop offset="1" stop-color="#FFF0E4"/>
</linearGradient>
<linearGradient id="paint10_linear_440_422" x1="1284.42" y1="801.576" x2="1284.42" y2="840.832" gradientUnits="userSpaceOnUse">
<stop stop-color="#E0D5D5"/>
<stop offset="1" stop-color="#FFBB3C"/>
</linearGradient>
<linearGradient id="paint11_linear_440_422" x1="1286" y1="863.269" x2="1284.57" y2="756.896" gradientUnits="userSpaceOnUse">
<stop stop-color="#6D6D6C"/>
<stop offset="1" stop-color="#DADADA"/>
</linearGradient>
</defs>
</svg>
