<svg width="auto" height="auto" viewBox="0 0 1920 982" fill="none" xmlns="http://www.w3.org/2000/svg">
<g id="book-idea">
<g id="Group">
<g id="dream" filter="url(#filter0_d_440_423)">
<g id="Vector">
<path d="M960.5 880.5C949.363 857.329 915.67 821.66 883.664 785.802C830.32 725.98 797.284 725.363 750.866 681.312C662.24 597.262 709.127 529.952 633.978 476.121C563.695 425.815 509.883 475.24 432.956 424.493C354.438 372.689 391.966 308.814 316.91 239.213C227.442 156.309 113.831 214.852 15.3789 136C-45.826 87.015 -57.9931 5.91761 -69.5977 -57.4282C634.633 -53.7279 1338.77 -49.9394 2043 -46.2391C2015.88 27 1960.88 75 1887.38 136C1799.77 208.707 1679.07 182.982 1612.38 239.213C1545.69 295.445 1581.17 372.865 1496.38 424.493C1411.58 476.121 1352.88 430.584 1295.38 476.121C1230.38 527.598 1251.69 594.531 1145.38 681.312C1100.46 718.051 1078.12 720.165 1021.88 785.802C996.858 815 973 858 960.5 880.5Z" fill="#393186"/>
<path d="M960.5 880.5C949.363 857.329 915.67 821.66 883.664 785.802C830.32 725.98 797.284 725.363 750.866 681.312C662.24 597.262 709.127 529.952 633.978 476.121C563.695 425.815 509.883 475.24 432.956 424.493C354.438 372.689 391.966 308.814 316.91 239.213C227.442 156.309 113.831 214.852 15.3789 136C-45.826 87.015 -57.9931 5.91761 -69.5977 -57.4282C634.633 -53.7279 1338.77 -49.9394 2043 -46.2391C2015.88 27 1960.88 75 1887.38 136C1799.77 208.707 1679.07 182.982 1612.38 239.213C1545.69 295.445 1581.17 372.865 1496.38 424.493C1411.58 476.121 1352.88 430.584 1295.38 476.121C1230.38 527.598 1251.69 594.531 1145.38 681.312C1100.46 718.051 1078.12 720.165 1021.88 785.802C996.858 815 973 858 960.5 880.5Z" fill="url(#paint0_linear_440_423)" fill-opacity="0.3"/>
<path d="M960.5 880.5C949.363 857.329 915.67 821.66 883.664 785.802C830.32 725.98 797.284 725.363 750.866 681.312C662.24 597.262 709.127 529.952 633.978 476.121C563.695 425.815 509.883 475.24 432.956 424.493C354.438 372.689 391.966 308.814 316.91 239.213C227.442 156.309 113.831 214.852 15.3789 136C-45.826 87.015 -57.9931 5.91761 -69.5977 -57.4282C634.633 -53.7279 1338.77 -49.9394 2043 -46.2391C2015.88 27 1960.88 75 1887.38 136C1799.77 208.707 1679.07 182.982 1612.38 239.213C1545.69 295.445 1581.17 372.865 1496.38 424.493C1411.58 476.121 1352.88 430.584 1295.38 476.121C1230.38 527.598 1251.69 594.531 1145.38 681.312C1100.46 718.051 1078.12 720.165 1021.88 785.802C996.858 815 973 858 960.5 880.5Z" fill="url(#paint1_radial_440_423)"/>
</g>
</g>
<g id="cover" filter="url(#filter1_d_440_423)">
<path id="Vector_2" d="M446.871 855.95L921.843 963.097C929.754 965.907 942.677 969.355 958.764 969.1C973.269 968.844 987.774 965.013 995.291 962.331C1153.92 926.573 1309.65 891.581 1468.28 855.822C1470.92 856.078 1473.3 854.673 1474.09 852.502C1474.88 849.948 1473.03 847.777 1473.03 847.777C1414.75 782.39 1356.6 717.003 1298.31 651.489L960.61 722.495L622.645 651.617L446.871 844.329C446.475 844.839 444.629 847.01 444.629 850.203C444.629 853.396 446.475 855.439 446.871 855.95Z" fill="#663399"/>
</g>
<g id="stem_shadow">
<path id="Vector_3" d="M923.935 955.016C933.693 956.804 945.824 958.209 959.67 958.209C973.384 958.081 983.515 957.703 993.141 955.788C994.377 955.386 994.79 954.984 995.202 954.583C995.614 954.181 996.026 953.377 995.933 952.334C995.933 944.927 995.933 938.414 995.933 930.879H921.43C921.43 937.903 921.43 944.799 921.43 951.823C921.43 952.206 921.562 953.228 922.485 954.122C923.012 954.633 923.54 954.888 923.935 955.016Z" fill="#472866"/>
</g>
<g id="last_pg">
<g id="Vector_4" opacity="0.53">
<path d="M629.458 646.252L470.562 822.49V845.349L941.843 950.07L958.458 936.022L975.995 950.07L1448.59 844.072V821.723L1286.93 646.252L959.644 733.988L629.458 646.252Z" fill="url(#paint2_linear_440_423)"/>
<path d="M629.458 646.252L470.562 822.49V845.349L941.843 950.07L958.458 936.022L975.995 950.07L1448.59 844.072V821.723L1286.93 646.252L959.644 733.988L629.458 646.252Z" fill="url(#paint3_radial_440_423)"/>
</g>
</g>
<g id="leftstack">
<path id="Vector_5" d="M470.289 844.712V822.746L958.447 936.024L941.569 950.072L470.289 844.712Z" fill="url(#paint4_linear_440_423)"/>
</g>
<g id="rightstack">
<path id="Vector_6" d="M1448.59 844.459V822.493L958.848 936.026L975.99 949.818L1448.59 844.459Z" fill="url(#paint5_linear_440_423)"/>
</g>
<g id="Layer_11">
<path id="Vector_7" opacity="0.3" d="M470.562 822.493C541.769 841.394 600.976 850.461 642.645 855.187C734.817 865.659 785.98 860.295 860.747 886.73C904.13 902.055 937.228 921.722 958.458 936.026C795.87 898.096 633.15 860.295 470.562 822.493Z" fill="url(#paint6_linear_440_423)"/>
</g>
<g id="Layer_12">
<g id="Vector_8" opacity="0.3">
<path d="M1446.74 822.493C1375.54 841.394 1316.33 850.461 1274.66 855.187C1182.49 865.659 1131.33 860.295 1056.56 886.73C1013.18 902.055 980.078 921.722 958.848 936.026C1121.57 898.096 1284.16 860.295 1446.74 822.493Z" fill="#8F6F89"/>
<path d="M1446.74 822.493C1375.54 841.394 1316.33 850.461 1274.66 855.187C1182.49 865.659 1131.33 860.295 1056.56 886.73C1013.18 902.055 980.078 921.722 958.848 936.026C1121.57 898.096 1284.16 860.295 1446.74 822.493Z" fill="url(#paint7_linear_440_423)"/>
</g>
</g>
<g id="top_pg">
<path id="Vector_9" d="M681.59 627.481L505.156 796.95C508.98 800.653 513.2 804.229 517.683 807.805C561.33 841.648 613.812 846.884 648.096 846.245C667.744 845.734 696.227 845.607 730.379 847.65C794.333 851.481 830.464 853.525 869.759 870.765C890.726 879.96 926.197 898.223 958.503 936.152C976.569 918.145 1006.11 890.815 1053.71 871.276C1112.92 847.139 1165.79 847.522 1193.09 849.566C1236.47 852.503 1299.11 850.204 1366.09 823.258C1382.58 816.617 1397.35 809.337 1410.66 801.675C1352.38 743.568 1293.96 685.588 1235.68 627.481C1197.44 640.635 1165.79 648.425 1144.56 653.15C1089.58 665.282 1062.94 665.155 1021.4 681.501C992.788 692.74 971.426 706.277 958.503 715.216C932.922 697.209 910.373 687.248 894.945 681.501C838.508 660.429 804.223 668.858 736.05 648.169C712.05 640.89 693.062 632.844 681.59 627.481Z" fill="url(#paint8_linear_440_423)"/>
</g>
<g id="bulb">
<path id="Vector_10" d="M1115.38 520.717C1115.38 610.24 1043.65 624.16 1043.65 707.554C1043.65 750.591 998.812 754.295 964.659 754.295C935.122 754.295 870.113 743.44 870.113 707.554C870.113 624.16 799.566 610.24 799.566 520.717C799.566 436.812 875.388 368.871 958.726 368.871C1041.93 368.871 1115.38 436.812 1115.38 520.717Z" fill="url(#paint9_linear_440_423)"/>
<path id="Vector_11" d="M1017.29 818.916C1017.29 830.41 985.252 853.653 957.429 853.653C929.737 853.653 897.562 830.41 897.562 818.916C897.562 807.422 929.605 812.02 957.429 812.02C985.252 811.892 1017.29 807.295 1017.29 818.916Z" fill="url(#paint10_linear_440_423)"/>
<path id="Vector_12" d="M1043.54 797.972C1043.54 813.297 1030.62 825.812 1014.8 825.812H899.945C884.122 825.812 871.199 813.297 871.199 797.972V714.578H1043.54V797.972Z" fill="#99AAB5"/>
<path id="Vector_13" d="M871.259 811.892C863.347 811.892 856.886 805.635 857.018 797.972C857.018 791.204 862.028 785.457 869.017 784.307L1041.36 756.467C1049.14 755.19 1056.53 760.171 1057.85 767.705V767.833C1059.16 775.368 1053.89 782.519 1046.11 783.797L873.764 811.637C872.841 811.892 872.05 811.892 871.259 811.892ZM871.259 756.339C863.347 756.339 856.886 750.082 857.018 742.419C857.018 735.65 862.028 729.904 869.017 728.754L1041.36 700.914C1049.14 699.637 1056.53 704.745 1057.85 712.28V712.408C1059.16 719.942 1053.89 727.094 1046.11 728.371L873.764 756.212C872.841 756.212 872.05 756.339 871.259 756.339Z" fill="url(#paint11_linear_440_423)"/>
</g>
</g>
</g>
<defs>
<filter id="filter0_d_440_423" x="-73.5977" y="-57.4282" width="2120.6" height="945.928" filterUnits="userSpaceOnUse" color-interpolation-filters="sRGB">
<feFlood flood-opacity="0" result="BackgroundImageFix"/>
<feColorMatrix in="SourceAlpha" type="matrix" values="0 0 0 0 0 0 0 0 0 0 0 0 0 0 0 0 0 0 127 0" result="hardAlpha"/>
<feOffset dy="4"/>
<feGaussianBlur stdDeviation="2"/>
<feComposite in2="hardAlpha" operator="out"/>
<feColorMatrix type="matrix" values="0 0 0 0 0 0 0 0 0 0 0 0 0 0 0 0 0 0 0.25 0"/>
<feBlend mode="normal" in2="BackgroundImageFix" result="effect1_dropShadow_440_423"/>
<feBlend mode="normal" in="SourceGraphic" in2="effect1_dropShadow_440_423" result="shape"/>
</filter>
<filter id="filter1_d_440_423" x="436.629" y="647.489" width="1045.66" height="333.624" filterUnits="userSpaceOnUse" color-interpolation-filters="sRGB">
<feFlood flood-opacity="0" result="BackgroundImageFix"/>
<feColorMatrix in="SourceAlpha" type="matrix" values="0 0 0 0 0 0 0 0 0 0 0 0 0 0 0 0 0 0 127 0" result="hardAlpha"/>
<feOffset dy="4"/>
<feGaussianBlur stdDeviation="4"/>
<feComposite in2="hardAlpha" operator="out"/>
<feColorMatrix type="matrix" values="0 0 0 0 0 0 0 0 0 0 0 0 0 0 0 0 0 0 0.25 0"/>
<feBlend mode="normal" in2="BackgroundImageFix" result="effect1_dropShadow_440_423"/>
<feBlend mode="normal" in="SourceGraphic" in2="effect1_dropShadow_440_423" result="shape"/>
</filter>
<linearGradient id="paint0_linear_440_423" x1="994.33" y1="-57.4282" x2="994.33" y2="879.455" gradientUnits="userSpaceOnUse">
<stop stop-color="#393186"/>
<stop offset="1" stop-color="#000001"/>
</linearGradient>
<radialGradient id="paint1_radial_440_423" cx="0" cy="0" r="1" gradientUnits="userSpaceOnUse" gradientTransform="translate(994.33 496.725) rotate(90) scale(202.822 457.347)">
<stop stop-color="#563186"/>
<stop offset="1" stop-color="#393186"/>
</radialGradient>
<linearGradient id="paint2_linear_440_423" x1="959.467" y1="933.084" x2="959.673" y2="738.023" gradientUnits="userSpaceOnUse">
<stop stop-color="#FFE1F8"/>
<stop offset="1" stop-color="#9E7FBD"/>
</linearGradient>
<radialGradient id="paint3_radial_440_423" cx="0" cy="0" r="1" gradientUnits="userSpaceOnUse" gradientTransform="translate(959.578 798.161) rotate(90) scale(151.909 489.016)">
<stop stop-color="#393186"/>
<stop offset="1" stop-color="#9995C0"/>
</radialGradient>
<linearGradient id="paint4_linear_440_423" x1="470.262" y1="886.374" x2="958.468" y2="886.374" gradientUnits="userSpaceOnUse">
<stop stop-color="white"/>
<stop offset="1" stop-color="#9E7FBD"/>
</linearGradient>
<linearGradient id="paint5_linear_440_423" x1="1442.22" y1="906.338" x2="954.858" y2="860.716" gradientUnits="userSpaceOnUse">
<stop stop-color="white"/>
<stop offset="1" stop-color="#9E7FBD"/>
</linearGradient>
<linearGradient id="paint6_linear_440_423" x1="957.99" y1="936.4" x2="472.424" y2="815.169" gradientUnits="userSpaceOnUse">
<stop stop-color="#A78BC4"/>
<stop offset="1" stop-color="#7F65AD"/>
</linearGradient>
<linearGradient id="paint7_linear_440_423" x1="1446.32" y1="822.274" x2="960.756" y2="943.505" gradientUnits="userSpaceOnUse">
<stop stop-color="#7E64AC"/>
<stop offset="1" stop-color="#A78BC4"/>
</linearGradient>
<linearGradient id="paint8_linear_440_423" x1="958.1" y1="907.272" x2="957.414" y2="426.349" gradientUnits="userSpaceOnUse">
<stop stop-color="white"/>
<stop offset="1" stop-color="#9E7FBD"/>
</linearGradient>
<linearGradient id="paint9_linear_440_423" x1="956.996" y1="721.435" x2="957.653" y2="390.924" gradientUnits="userSpaceOnUse">
<stop stop-color="#FFBB51"/>
<stop offset="1" stop-color="#FFF0E4"/>
</linearGradient>
<linearGradient id="paint10_linear_440_423" x1="957.429" y1="811.017" x2="957.429" y2="853.653" gradientUnits="userSpaceOnUse">
<stop stop-color="#E0D5D5"/>
<stop offset="1" stop-color="#FFBB3C"/>
</linearGradient>
<linearGradient id="paint11_linear_440_423" x1="959.141" y1="878.023" x2="957.589" y2="762.49" gradientUnits="userSpaceOnUse">
<stop stop-color="#6D6D6C"/>
<stop offset="1" stop-color="#DADADA"/>
</linearGradient>
</defs>
</svg>
