<svg width="2139" height="1110" viewBox="0 0 2139 1110" fill="none" xmlns="http://www.w3.org/2000/svg">
<g id="book-idea.2 1">
<g id="book-idea">
<g id="Group">
<g id="dream" filter="url(#filter0_d_440_422)">
<g id="Vector">
<path d="M1071.84 864C1060.3 842.655 1025.37 809.797 992.19 776.766C936.892 721.66 902.646 721.092 854.527 680.513C762.654 603.088 811.258 541.083 733.355 491.495C660.497 445.154 604.714 490.684 524.968 443.937C443.573 396.216 482.476 337.376 404.67 273.261C311.924 196.891 142.812 256.5 55.9333 171.735C-1.65877 115.545 16.0298 58.3544 4 0.00169375C733.355 0.00170199 1409.79 4.94773e-05 2134.92 0C2134.92 63.4968 2139.5 118.301 2079.98 174.499C1996.03 253.752 1816.74 221.462 1747.61 273.261C1678.47 325.06 1715.26 396.378 1627.36 443.937C1539.45 491.495 1478.6 449.547 1418.99 491.495C1351.61 538.915 1373.7 600.572 1263.5 680.513C1216.93 714.356 1193.78 716.303 1135.47 776.766C1109.53 803.663 1084.8 843.274 1071.84 864Z" fill="#393186"/>
<path d="M1071.84 864C1060.3 842.655 1025.37 809.797 992.19 776.766C936.892 721.66 902.646 721.092 854.527 680.513C762.654 603.088 811.258 541.083 733.355 491.495C660.497 445.154 604.714 490.684 524.968 443.937C443.573 396.216 482.476 337.376 404.67 273.261C311.924 196.891 142.812 256.5 55.9333 171.735C-1.65877 115.545 16.0298 58.3544 4 0.00169375C733.355 0.00170199 1409.79 4.94773e-05 2134.92 0C2134.92 63.4968 2139.5 118.301 2079.98 174.499C1996.03 253.752 1816.74 221.462 1747.61 273.261C1678.47 325.06 1715.26 396.378 1627.36 443.937C1539.45 491.495 1478.6 449.547 1418.99 491.495C1351.61 538.915 1373.7 600.572 1263.5 680.513C1216.93 714.356 1193.78 716.303 1135.47 776.766C1109.53 803.663 1084.8 843.274 1071.84 864Z" fill="url(#paint0_linear_440_422)" fill-opacity="0.3"/>
<path d="M1071.84 864C1060.3 842.655 1025.37 809.797 992.19 776.766C936.892 721.66 902.646 721.092 854.527 680.513C762.654 603.088 811.258 541.083 733.355 491.495C660.497 445.154 604.714 490.684 524.968 443.937C443.573 396.216 482.476 337.376 404.67 273.261C311.924 196.891 142.812 256.5 55.9333 171.735C-1.65877 115.545 16.0298 58.3544 4 0.00169375C733.355 0.00170199 1409.79 4.94773e-05 2134.92 0C2134.92 63.4968 2139.5 118.301 2079.98 174.499C1996.03 253.752 1816.74 221.462 1747.61 273.261C1678.47 325.06 1715.26 396.378 1627.36 443.937C1539.45 491.495 1478.6 449.547 1418.99 491.495C1351.61 538.915 1373.7 600.572 1263.5 680.513C1216.93 714.356 1193.78 716.303 1135.47 776.766C1109.53 803.663 1084.8 843.274 1071.84 864Z" fill="url(#paint1_radial_440_422)"/>
</g>
</g>
<g id="cover" filter="url(#filter1_d_440_422)">
<path id="Vector_2" d="M597.345 842.946L1034.66 941.598C1041.94 944.185 1053.84 947.36 1068.65 947.125C1082.01 946.89 1095.36 943.362 1102.28 940.893C1248.34 907.97 1391.72 875.752 1537.78 842.829C1540.2 843.064 1542.39 841.77 1543.12 839.771C1543.85 837.42 1542.15 835.421 1542.15 835.421C1488.48 775.218 1434.94 715.016 1381.28 654.696L1070.35 720.072L759.183 654.813L597.345 832.246C596.981 832.716 595.281 834.715 595.281 837.655C595.281 840.594 596.981 842.476 597.345 842.946Z" fill="#663399"/>
</g>
<g id="stem_shadow">
<path id="Vector_3" d="M1036.59 934.162C1045.58 935.809 1056.75 937.102 1069.49 937.102C1082.12 936.984 1091.45 936.637 1100.31 934.873C1101.45 934.503 1101.83 934.133 1102.21 933.763C1102.59 933.393 1102.97 932.654 1102.88 931.693C1102.88 924.873 1102.88 918.877 1102.88 911.939H1034.29C1034.29 918.406 1034.29 924.756 1034.29 931.223C1034.29 931.576 1034.41 932.516 1035.26 933.339C1035.74 933.81 1036.23 934.045 1036.59 934.162Z" fill="#472866"/>
</g>
<g id="last_pg">
<g id="Vector_4" opacity="0.53">
<path d="M765.458 649.873L619.16 812.138V833.186L1053.07 929.604L1068.37 916.67L1084.52 929.604L1519.65 832.01V811.433L1370.8 649.873L1069.46 730.653L765.458 649.873Z" fill="url(#paint2_linear_440_422)"/>
<path d="M765.458 649.873L619.16 812.138V833.186L1053.07 929.604L1068.37 916.67L1084.52 929.604L1519.65 832.01V811.433L1370.8 649.873L1069.46 730.653L765.458 649.873Z" fill="url(#paint3_radial_440_422)"/>
</g>
</g>
<g id="leftstack">
<path id="Vector_5" d="M618.91 832.602V812.378L1068.36 916.674L1052.82 929.608L618.91 832.602Z" fill="url(#paint4_linear_440_422)"/>
</g>
<g id="rightstack">
<path id="Vector_6" d="M1519.64 832.365V812.141L1068.73 916.672L1084.51 929.371L1519.64 832.365Z" fill="url(#paint5_linear_440_422)"/>
</g>
<g id="Layer_11">
<path id="Vector_7" opacity="0.3" d="M619.16 812.141C684.721 829.543 739.233 837.892 777.598 842.242C862.463 851.884 909.569 846.945 978.408 871.285C1018.35 885.395 1048.83 903.503 1068.37 916.672C918.675 881.75 768.857 846.945 619.16 812.141Z" fill="url(#paint6_linear_440_422)"/>
</g>
<g id="Layer_12">
<g id="Vector_8" opacity="0.3">
<path d="M1517.94 812.141C1452.38 829.543 1397.87 837.892 1359.5 842.242C1274.64 851.884 1227.53 846.945 1158.69 871.285C1118.75 885.395 1088.28 903.503 1068.73 916.672C1218.55 881.75 1368.25 846.945 1517.94 812.141Z" fill="#8F6F89"/>
<path d="M1517.94 812.141C1452.38 829.543 1397.87 837.892 1359.5 842.242C1274.64 851.884 1227.53 846.945 1158.69 871.285C1118.75 885.395 1088.28 903.503 1068.73 916.672C1218.55 881.75 1368.25 846.945 1517.94 812.141Z" fill="url(#paint7_linear_440_422)"/>
</g>
</g>
<g id="top_pg">
<path id="Vector_9" d="M813.457 632.59L651.012 788.623C654.533 792.033 658.418 795.325 662.546 798.617C702.732 829.777 751.053 834.598 782.619 834.01C800.709 833.54 826.933 833.422 858.378 835.303C917.261 838.831 950.527 840.712 986.707 856.586C1006.01 865.052 1038.67 881.866 1068.42 916.788C1085.05 900.209 1112.24 875.046 1156.07 857.056C1210.58 834.833 1259.27 835.186 1284.4 837.067C1324.34 839.771 1382.01 837.655 1443.69 812.845C1458.87 806.731 1472.46 800.028 1484.73 792.973C1431.06 739.473 1377.28 686.09 1323.62 632.59C1288.41 644.701 1259.27 651.874 1239.72 656.224C1189.1 667.395 1164.57 667.277 1126.33 682.328C1099.98 692.675 1080.31 705.139 1068.42 713.37C1044.86 696.79 1024.1 687.619 1009.9 682.328C957.933 662.927 926.367 670.687 863.599 651.639C841.502 644.936 824.019 637.529 813.457 632.59Z" fill="url(#paint8_linear_440_422)"/>
</g>
<g id="bulb">
<path id="Vector_10" d="M1212.85 534.291C1212.85 616.716 1146.81 629.533 1146.81 706.315C1146.81 745.94 1105.53 749.35 1074.08 749.35C1046.89 749.35 987.032 739.355 987.032 706.315C987.032 629.533 922.078 616.716 922.078 534.291C922.078 457.039 991.888 394.484 1068.62 394.484C1145.23 394.484 1212.85 457.039 1212.85 534.291Z" fill="url(#paint9_linear_440_422)"/>
<path id="Vector_11" d="M1122.54 808.849C1122.54 819.432 1093.04 840.832 1067.42 840.832C1041.92 840.832 1012.3 819.432 1012.3 808.849C1012.3 798.267 1041.8 802.5 1067.42 802.5C1093.04 802.382 1122.54 798.149 1122.54 808.849Z" fill="url(#paint10_linear_440_422)"/>
<path id="Vector_12" d="M1146.71 789.565C1146.71 803.675 1134.81 815.198 1120.24 815.198H1014.49C999.925 815.198 988.027 803.675 988.027 789.565V712.783H1146.71V789.565Z" fill="#99AAB5"/>
<path id="Vector_13" d="M988.087 802.381C980.802 802.381 974.853 796.62 974.974 789.565C974.974 783.333 979.588 778.042 986.023 776.984L1144.7 751.35C1151.87 750.175 1158.67 754.76 1159.88 761.698V761.815C1161.09 768.753 1156.24 775.337 1149.07 776.513L990.393 802.146C989.544 802.381 988.815 802.381 988.087 802.381ZM988.087 751.233C980.802 751.233 974.853 745.471 974.974 738.416C974.974 732.184 979.588 726.893 986.023 725.835L1144.7 700.202C1151.87 699.026 1158.67 703.729 1159.88 710.667V710.784C1161.09 717.722 1156.24 724.306 1149.07 725.482L990.393 751.115C989.544 751.115 988.815 751.233 988.087 751.233Z" fill="url(#paint11_linear_440_422)"/>
</g>
</g>
</g>
</g>
<defs>
<filter id="filter0_d_440_422" x="0" y="0" width="2139" height="872" filterUnits="userSpaceOnUse" color-interpolation-filters="sRGB">
<feFlood flood-opacity="0" result="BackgroundImageFix"/>
<feColorMatrix in="SourceAlpha" type="matrix" values="0 0 0 0 0 0 0 0 0 0 0 0 0 0 0 0 0 0 127 0" result="hardAlpha"/>
<feOffset dy="4"/>
<feGaussianBlur stdDeviation="2"/>
<feComposite in2="hardAlpha" operator="out"/>
<feColorMatrix type="matrix" values="0 0 0 0 0 0 0 0 0 0 0 0 0 0 0 0 0 0 0.25 0"/>
<feBlend mode="normal" in2="BackgroundImageFix" result="effect1_dropShadow_440_422"/>
<feBlend mode="normal" in="SourceGraphic" in2="effect1_dropShadow_440_422" result="shape"/>
</filter>
<filter id="filter1_d_440_422" x="587.281" y="650.696" width="964.02" height="308.441" filterUnits="userSpaceOnUse" color-interpolation-filters="sRGB">
<feFlood flood-opacity="0" result="BackgroundImageFix"/>
<feColorMatrix in="SourceAlpha" type="matrix" values="0 0 0 0 0 0 0 0 0 0 0 0 0 0 0 0 0 0 127 0" result="hardAlpha"/>
<feOffset dy="4"/>
<feGaussianBlur stdDeviation="4"/>
<feComposite in2="hardAlpha" operator="out"/>
<feColorMatrix type="matrix" values="0 0 0 0 0 0 0 0 0 0 0 0 0 0 0 0 0 0 0.25 0"/>
<feBlend mode="normal" in2="BackgroundImageFix" result="effect1_dropShadow_440_422"/>
<feBlend mode="normal" in="SourceGraphic" in2="effect1_dropShadow_440_422" result="shape"/>
</filter>
<linearGradient id="paint0_linear_440_422" x1="1106.91" y1="0.0016328" x2="1106.91" y2="863.037" gradientUnits="userSpaceOnUse">
<stop stop-color="#393186"/>
<stop offset="1" stop-color="#000001"/>
</linearGradient>
<radialGradient id="paint1_radial_440_422" cx="0" cy="0" r="1" gradientUnits="userSpaceOnUse" gradientTransform="translate(1106.91 510.475) rotate(90) scale(186.835 474.105)">
<stop stop-color="#563186"/>
<stop offset="1" stop-color="#393186"/>
</radialGradient>
<linearGradient id="paint2_linear_440_422" x1="1069.3" y1="913.964" x2="1069.49" y2="734.368" gradientUnits="userSpaceOnUse">
<stop stop-color="#FFE1F8"/>
<stop offset="1" stop-color="#9E7FBD"/>
</linearGradient>
<radialGradient id="paint3_radial_440_422" cx="0" cy="0" r="1" gradientUnits="userSpaceOnUse" gradientTransform="translate(1069.4 789.739) rotate(90) scale(139.865 450.244)">
<stop stop-color="#393186"/>
<stop offset="1" stop-color="#9995C0"/>
</radialGradient>
<linearGradient id="paint4_linear_440_422" x1="618.886" y1="870.96" x2="1068.38" y2="870.96" gradientUnits="userSpaceOnUse">
<stop stop-color="white"/>
<stop offset="1" stop-color="#9E7FBD"/>
</linearGradient>
<linearGradient id="paint5_linear_440_422" x1="1513.78" y1="889.338" x2="1065.06" y2="847.334" gradientUnits="userSpaceOnUse">
<stop stop-color="white"/>
<stop offset="1" stop-color="#9E7FBD"/>
</linearGradient>
<linearGradient id="paint6_linear_440_422" x1="1067.94" y1="917.017" x2="620.874" y2="805.398" gradientUnits="userSpaceOnUse">
<stop stop-color="#A78BC4"/>
<stop offset="1" stop-color="#7F65AD"/>
</linearGradient>
<linearGradient id="paint7_linear_440_422" x1="1517.55" y1="811.939" x2="1070.49" y2="923.558" gradientUnits="userSpaceOnUse">
<stop stop-color="#7E64AC"/>
<stop offset="1" stop-color="#A78BC4"/>
</linearGradient>
<linearGradient id="paint8_linear_440_422" x1="1068.04" y1="890.198" x2="1067.41" y2="447.405" gradientUnits="userSpaceOnUse">
<stop stop-color="white"/>
<stop offset="1" stop-color="#9E7FBD"/>
</linearGradient>
<linearGradient id="paint9_linear_440_422" x1="1067.03" y1="719.095" x2="1067.63" y2="414.789" gradientUnits="userSpaceOnUse">
<stop stop-color="#FFBB51"/>
<stop offset="1" stop-color="#FFF0E4"/>
</linearGradient>
<linearGradient id="paint10_linear_440_422" x1="1067.42" y1="801.576" x2="1067.42" y2="840.832" gradientUnits="userSpaceOnUse">
<stop stop-color="#E0D5D5"/>
<stop offset="1" stop-color="#FFBB3C"/>
</linearGradient>
<linearGradient id="paint11_linear_440_422" x1="1069" y1="863.269" x2="1067.57" y2="756.896" gradientUnits="userSpaceOnUse">
<stop stop-color="#6D6D6C"/>
<stop offset="1" stop-color="#DADADA"/>
</linearGradient>
</defs>
</svg>
